<svg width="323" height="328" viewBox="0 0 323 328" fill="none" xmlns="http://www.w3.org/2000/svg">
<g clip-path="url(#clip0_30_17)">
<path d="M0 278.637H15.1417C17.4506 278.637 19.1419 278.927 20.2158 279.508C21.3434 280.037 22.0683 280.882 22.3904 282.044C22.7663 283.153 22.9542 284.553 22.9542 286.243V298.604C22.9542 300.506 22.7931 302.302 22.471 303.992C22.1488 305.629 21.3165 306.976 19.9742 308.033C18.6318 309.036 16.4304 309.538 13.3698 309.538H4.1076V327.762H0V278.637ZM12.3228 306.29C14.4706 306.29 16.0814 305.761 17.1553 304.705C18.2828 303.596 18.8466 301.8 18.8466 299.317V287.828C18.8466 285.557 18.4439 283.998 17.6385 283.153C16.8868 282.308 15.4639 281.885 13.3698 281.885H4.1076V306.29H12.3228Z" fill="white"/>
<path d="M29.9668 278.637H34.0744V298.525H48.4912V278.637H52.5988V327.762H48.4912V301.694H34.0744V327.762H29.9668V278.637Z" fill="white"/>
<path d="M72.5297 328C68.8248 328 66.0059 327.34 64.0729 326.019C62.1936 324.699 61.2539 322.823 61.2539 320.393V285.451C61.2539 283.285 62.113 281.489 63.8312 280.063C65.6031 278.637 68.5026 277.95 72.5297 278.003C76.5567 278.056 79.4562 278.769 81.2281 280.142C83.0537 281.516 83.9665 283.312 83.9665 285.53V320.314C83.9665 322.744 83 324.646 81.067 326.019C79.1878 327.34 76.342 328 72.5297 328ZM72.5297 324.672C75.107 324.672 76.9863 324.17 78.1676 323.167C79.3488 322.163 79.9395 320.895 79.9395 319.363V286.402C79.9395 285.081 79.4025 283.919 78.3286 282.915C77.3084 281.859 75.3218 281.331 72.3686 281.331C69.6839 281.331 67.8315 281.833 66.8113 282.836C65.7911 283.84 65.281 285.002 65.281 286.322V319.443C65.281 320.975 65.8448 322.242 66.9723 323.246C68.1536 324.197 70.0061 324.672 72.5297 324.672Z" fill="white"/>
<path d="M97.5856 281.885H88.7261V278.637H110.714V281.885H101.693V327.762H97.5856V281.885Z" fill="white"/>
<path d="M126.801 328C123.096 328 120.277 327.34 118.344 326.019C116.465 324.699 115.525 322.823 115.525 320.393V285.451C115.525 283.285 116.384 281.489 118.102 280.063C119.874 278.637 122.774 277.95 126.801 278.003C130.828 278.056 133.727 278.769 135.499 280.142C137.325 281.516 138.237 283.312 138.237 285.53V320.314C138.237 322.744 137.271 324.646 135.338 326.019C133.459 327.34 130.613 328 126.801 328ZM126.801 324.672C129.378 324.672 131.257 324.17 132.439 323.167C133.62 322.163 134.21 320.895 134.21 319.363V286.402C134.21 285.081 133.673 283.919 132.6 282.915C131.579 281.859 129.593 281.331 126.64 281.331C123.955 281.331 122.102 281.833 121.082 282.836C120.062 283.84 119.552 285.002 119.552 286.322V319.443C119.552 320.975 120.116 322.242 121.243 323.246C122.425 324.197 124.277 324.672 126.801 324.672Z" fill="white"/>
<path d="M157.64 328C155.17 328 153.049 327.815 151.278 327.445C149.559 327.023 148.244 326.283 147.331 325.227C146.472 324.117 146.042 322.586 146.042 320.631V285.689C146.042 282.731 147.036 280.776 149.022 279.825C151.063 278.822 153.935 278.32 157.64 278.32C161.238 278.32 163.976 278.822 165.856 279.825C167.789 280.829 168.755 282.81 168.755 285.768V294.167H164.647V286.481C164.647 284.474 164.03 283.153 162.795 282.519C161.614 281.885 159.895 281.568 157.64 281.568C155.385 281.568 153.56 281.859 152.164 282.44C150.821 283.021 150.15 284.342 150.15 286.402V320.077C150.15 321.45 150.445 322.48 151.036 323.167C151.68 323.801 152.566 324.223 153.694 324.434C154.875 324.593 156.191 324.672 157.64 324.672C159.09 324.672 160.325 324.593 161.345 324.434C162.419 324.223 163.251 323.801 163.842 323.167C164.433 322.48 164.728 321.45 164.728 320.077V304.784H156.352V301.377H168.755V320.631C168.755 322.586 168.325 324.117 167.466 325.227C166.607 326.283 165.345 327.023 163.681 327.445C162.016 327.815 160.003 328 157.64 328Z" fill="white"/>
<path d="M177.128 278.637H192.269C194.578 278.637 196.269 278.927 197.343 279.508C198.471 280.037 199.196 280.882 199.518 282.044C199.894 283.153 200.082 284.553 200.082 286.243V295.118C200.082 297.019 199.921 298.815 199.598 300.506C199.276 302.143 198.444 303.49 197.102 304.546C195.759 305.55 193.558 306.052 190.497 306.052H181.235V327.762H177.128V278.637ZM197.688 327.762L188.806 305.814L191.705 305.497L192.833 305.814L193.075 306.369L201.715 327.762H197.688ZM189.45 302.803C191.598 302.803 193.209 302.275 194.283 301.219C195.41 300.162 195.974 298.366 195.974 295.831V287.828C195.974 285.557 195.571 283.998 194.766 283.153C194.014 282.308 192.591 281.885 190.497 281.885H181.235V302.803H189.45Z" fill="white"/>
<path d="M205.289 327.762L215.92 278.637H222.041L232.511 327.762H228.243L225.665 315.798L226.551 316.59H211.168L211.893 315.798L209.477 327.762H205.289ZM211.973 313.817L211.571 313.342H226.229L225.665 313.817L219.786 283.787L219.625 283.232H218.256L218.095 283.787L211.973 313.817Z" fill="white"/>
<path d="M238.792 278.637H253.934C256.242 278.637 257.934 278.927 259.008 279.508C260.135 280.037 260.86 280.882 261.182 282.044C261.558 283.153 261.746 284.553 261.746 286.243V298.604C261.746 300.506 261.585 302.302 261.263 303.992C260.941 305.629 260.108 306.976 258.766 308.033C257.424 309.036 255.222 309.538 252.162 309.538H242.899V327.762H238.792V278.637ZM251.115 306.29C253.262 306.29 254.873 305.761 255.947 304.705C257.075 303.596 257.638 301.8 257.638 299.317V287.828C257.638 285.557 257.236 283.998 256.43 283.153C255.679 282.308 254.256 281.885 252.162 281.885H242.899V306.29H251.115Z" fill="white"/>
<path d="M268.759 278.637H272.866V298.525H287.283V278.637H291.391V327.762H287.283V301.694H272.866V327.762H268.759V278.637Z" fill="white"/>
<path d="M307.939 327.762V307.716L296.985 278.637H300.771L310.033 302.486L319.134 278.637H323L311.966 307.716V327.762H307.939Z" fill="white"/>
<path d="M169.997 62.0007L167.944 61.9459V64V207.995V210.036L169.984 209.995C209.44 209.205 241.12 176.341 241.12 135.995C241.12 124.466 238.533 113.547 233.917 103.812L233.375 102.669H232.11H221.391C214.987 79.665 194.51 62.6554 169.997 62.0007ZM156.176 64V61.9596L154.136 62.0004C114.68 62.7901 83 95.6545 83 136C83 176.345 114.68 209.21 154.136 210L156.176 210.04V208V202.238V200.281L154.22 200.238C120.127 199.496 92.6471 171.056 92.6471 136C92.6471 127.677 94.1963 119.728 97.0143 112.435H146.529V121.957V123.957H148.529H154.176H156.176V121.957V64ZM177.591 112.43H227.106C229.924 119.724 231.473 127.672 231.473 135.995C231.473 168.371 208.03 195.109 177.591 199.588V112.43ZM211.282 102.669H177.591V72.6671C193.285 75.92 206.057 87.4708 211.282 102.669ZM146.529 102.674H101.764C111.323 86.6205 127.569 75.1969 146.529 72.4073V102.674Z" fill="white" stroke="white" stroke-width="4"/>
<path d="M200.823 0.00158691L200.825 0L244.806 44H323V48H243.108L242 46.8917V46.8878L199.143 4H123.912L79.9116 48H4V84H0V44H78.2549L122.255 0H200.822L200.823 0.00158691Z" fill="white"/>
<path d="M319 204H323V244H0V240H319V204Z" fill="white"/>
</g>
<defs>
<clipPath id="clip0_30_17">
<rect width="323" height="328" fill="white"/>
</clipPath>
</defs>
</svg>
